name rise45.9887peak57.8056fall74.9286.mot
datacolumns 19
datarows 14
range 21.74158900000000 21.76325500000000
endheader
time	ground_force1_vx	ground_force1_vy	ground_force1_vz	ground_force1_px	ground_force1_py	ground_force1_pz	ground_force2_vx	ground_force2_vy	ground_force2_vz	ground_force2_px	ground_force2_py	ground_force2_pz	ground_torque1_x	ground_torque1_y	ground_torque1_z	ground_torque2_x	ground_torque2_y	ground_torque2_z	
21.74158900000000	-9.28193100000000	43.47280300000000	-10.40136900000000	0.24172000000000	0.00000000000000	0.10557100000000	-59.42169100000000	773.64773200000002	-42.49182300000000	0.07021100000000	0.00000000000000	-0.06264400000000	0.00000000000000	-5.12781400000000	0.00000000000000	0.00000000000000	-11.43564400000000	0.00000000000000	
21.74324800000000	-10.10361300000000	51.08908600000000	-11.66057300000000	0.24792700000000	0.00000000000000	0.10672800000000	-60.35162600000000	770.44687599999997	-42.00609400000000	0.06919200000000	0.00000000000000	-0.06252600000000	0.00000000000000	-5.86494000000000	0.00000000000000	0.00000000000000	-11.45389800000000	0.00000000000000	
21.74491700000000	-10.73055000000000	58.83988300000000	-12.79199900000000	0.25367200000000	0.00000000000000	0.10776300000000	-61.28717200000000	767.10343100000000	-41.50450000000000	0.06818100000000	0.00000000000000	-0.06240500000000	0.00000000000000	-6.56295700000000	0.00000000000000	0.00000000000000	-11.47445700000000	0.00000000000000	
21.74658800000000	-11.13790900000000	66.62947800000001	-13.76811400000000	0.25902600000000	0.00000000000000	0.10869400000000	-62.22656800000000	763.61382700000001	-40.98709500000000	0.06717800000000	0.00000000000000	-0.06228200000000	0.00000000000000	-7.20616100000000	0.00000000000000	0.00000000000000	-11.49709700000000	0.00000000000000	
21.74825600000000	-11.31180900000000	74.38502900000000	-14.57094300000000	0.26404300000000	0.00000000000000	0.10953700000000	-63.16796900000000	759.97450500000002	-40.45395200000000	0.06618500000000	0.00000000000000	-0.06215600000000	0.00000000000000	-7.78310900000000	0.00000000000000	0.00000000000000	-11.52158500000000	0.00000000000000	
21.74992100000000	-11.24906400000000	82.05892799999999	-15.19215400000000	0.26876700000000	0.00000000000000	0.11030400000000	-64.10945400000000	756.18193699999995	-39.90516400000000	0.06520400000000	0.00000000000000	-0.06202700000000	0.00000000000000	-8.28689200000000	0.00000000000000	0.00000000000000	-11.54766800000000	0.00000000000000	
21.75158700000000	-10.95610300000000	89.62869600000001	-15.63233200000000	0.27323300000000	0.00000000000000	0.11100700000000	-65.04902400000000	752.23264099999994	-39.34084100000000	0.06423500000000	0.00000000000000	-0.06189600000000	0.00000000000000	-8.71499200000000	0.00000000000000	0.00000000000000	-11.57508300000000	0.00000000000000	
21.75325400000000	-10.44727900000000	97.09481300000000	-15.89966100000000	0.27746900000000	0.00000000000000	0.11165300000000	-65.98461000000000	748.12319100000002	-38.76111600000000	0.06328000000000	0.00000000000000	-0.06176200000000	0.00000000000000	-9.06880700000000	0.00000000000000	0.00000000000000	-11.60355300000000	0.00000000000000	
21.75492300000000	-9.74282400000000	104.47703000000000	-16.00819400000000	0.28150000000000	0.00000000000000	0.11225000000000	-66.91407700000001	743.85024299999998	-38.16614300000000	0.06234000000000	0.00000000000000	-0.06162500000000	0.00000000000000	-9.35293200000000	0.00000000000000	0.00000000000000	-11.63278800000000	0.00000000000000	
21.75658200000000	-8.86667400000000	111.80973299999999	-15.97596000000000	0.28534400000000	0.00000000000000	0.11280300000000	-67.83522300000000	739.41054399999996	-37.55610100000000	0.06141700000000	0.00000000000000	-0.06148500000000	0.00000000000000	-9.57429100000000	0.00000000000000	0.00000000000000	-11.66248800000000	0.00000000000000	
21.75825900000000	-7.84436700000000	119.13690200000001	-15.82306000000000	0.28901700000000	0.00000000000000	0.11331700000000	-68.74579100000000	734.80095800000004	-36.93119600000000	0.06051100000000	0.00000000000000	-0.06134200000000	0.00000000000000	-9.74123500000000	0.00000000000000	0.00000000000000	-11.69234200000000	0.00000000000000	
21.75991800000000	-6.70116800000000	126.50714900000000	-15.56993300000000	0.29253300000000	0.00000000000000	0.11379700000000	-69.64347100000001	730.01847799999996	-36.29165800000000	0.05962300000000	0.00000000000000	-0.06119500000000	0.00000000000000	-9.86266700000000	0.00000000000000	0.00000000000000	-11.72202700000000	0.00000000000000	
21.76158100000000	-5.46054400000000	133.96922100000000	-15.23589000000000	0.29590200000000	0.00000000000000	0.11424600000000	-70.52590200000000	725.06025000000000	-35.63774500000000	0.05875500000000	0.00000000000000	-0.06104600000000	0.00000000000000	-9.94727600000000	0.00000000000000	0.00000000000000	-11.75121500000000	0.00000000000000	
21.76325500000000	-4.14302600000000	141.56823299999999	-14.83798600000000	0.29913500000000	0.00000000000000	0.11466700000000	-71.39068399999999	719.92359199999999	-34.96974600000000	0.05790700000000	0.00000000000000	-0.06089400000000	0.00000000000000	-10.00291100000000	0.00000000000000	0.00000000000000	-11.77956600000000	0.00000000000000	
